<svg width="96" height="96" xmlns="http://www.w3.org/2000/svg" xmlns:xlink="http://www.w3.org/1999/xlink" xml:space="preserve" overflow="hidden"><g transform="translate(-434 -216)"><path d="M524.6 252.3 519.4 250.4 519.4 239.5 524.6 237.3 489.4 224.3 446.6 239.3C442.5 241.3 442.4 246.8 442.4 251.3 442.4 252.8 442.6 254.3 442.9 255.7 439.5 257.9 439.4 263 439.4 267.3 439.4 270.8 440.2 274 442.4 276 441.9 277.7 442.2 279.8 442.2 282.3 442.2 286.8 443.4 290.9 447.4 292.3L475.2 303.8 524.4 283.4 519.2 281.5 519.2 270.5 524.4 268.3 516.4 265.3 516.4 255.7 524.6 252.3ZM447.8 246.3 475.6 257.2 515.5 241.1 515.5 249.7 475.6 266.3 447.8 255.3 447.8 246.3ZM515.3 280.8 475.4 297.3 447.5 286.3 447.5 278.5 472.4 288.7 515.4 271.7 515.3 280.8ZM512.5 265.8 472.6 282.3 444.8 271.3 444.8 262.3 473.4 273.7 512.6 257.3 512.6 265.8Z"/></g></svg>